<svg xmlns="http://www.w3.org/2000/svg" viewBox="0 0 48 48" fill="#2E7D52" stroke-linecap="round" stroke-linejoin="round"><path d="M24 4a1.5 1.5 0 0 1 1.5 1.5v4.38l2.44-2.44a1.5 1.5 0 0 1 2.12 2.12l-4.56 4.57v5.27l4.56-2.63 1.67-6.23a1.5 1.5 0 1 1 2.9.78l-.9 3.34 3.79-2.19a1.5 1.5 0 0 1 1.5 2.6l-3.79 2.19 3.34.9a1.5 1.5 0 0 1-.77 2.9l-6.23-1.68L25.5 24l4.57 2.63 6.23-1.67a1.5 1.5 0 0 1 .77 2.9l-3.34.9 3.79 2.18a1.5 1.5 0 0 1-1.5 2.6l-3.79-2.18.9 3.33a1.5 1.5 0 1 1-2.9.78l-1.67-6.23-4.56-2.63v5.27l4.56 4.57a1.5 1.5 0 0 1-2.12 2.12L25.5 38.13v4.37a1.5 1.5 0 0 1-3 0v-4.37l-2.44 2.44a1.5 1.5 0 1 1-2.12-2.12l4.56-4.57v-5.27l-4.56 2.63-1.67 6.23a1.5 1.5 0 1 1-2.9-.78l.9-3.33-3.79 2.18a1.5 1.5 0 1 1-1.5-2.6l3.79-2.18-3.34-.9a1.5 1.5 0 0 1 .77-2.9l6.23 1.67L22.5 24l-4.57-2.63-6.23 1.68a1.5 1.5 0 0 1-.77-2.9l3.34-.9-3.79-2.19a1.5 1.5 0 0 1 1.5-2.6l3.79 2.19-.9-3.34a1.5 1.5 0 0 1 2.9-.78l1.67 6.23 4.56 2.63v-5.27l-4.56-4.57a1.5 1.5 0 1 1 2.12-2.12l2.44 2.44V5.5A1.5 1.5 0 0 1 24 4Z"></path></svg>