<svg xmlns="http://www.w3.org/2000/svg" viewBox="0 0 48 48" fill="#2E7D52" stroke-linecap="round" stroke-linejoin="round"><path d="M40.4 5.6a2 2 0 0 1 0 2.83L28.3 20.55l-2.83-2.83L37.57 5.6a2 2 0 0 1 2.83 0Z"></path>
    <path d="M24.06 19.13a2 2 0 0 1 2.83 0l2 2a2 2 0 0 1 .26 2.55l-1.7 2.45a2 2 0 0 1-.43.43l-13.55 9.87a3 3 0 0 1-3.88-.32l-1.7-1.7a3 3 0 0 1-.32-3.88l9.87-13.55a2 2 0 0 1 .43-.43l2.45-1.7a2 2 0 0 1 2.55.26l1 1Z" opacity=".7"></path>
    <path d="M9.7 38.85a2 2 0 0 1 2.83 0L14.6 41a1.5 1.5 0 0 1-1.06 2.55H8.5A1.5 1.5 0 0 1 7 42.05v-1.07a2 2 0 0 1 .59-1.42l2.12-.7Zm6.5-2.4a2 2 0 0 1 2.83 0l3.55 3.54a1.5 1.5 0 0 1-1.06 2.56h-3.43a2 2 0 0 1-1.41-.59L14.6 39.6a1.5 1.5 0 0 1 0-2.12l1.6-1.03Zm7.4-1.4a2 2 0 0 1 2.82 0l4.97 4.95a1.5 1.5 0 0 1-1.06 2.56h-3.44a2 2 0 0 1-1.4-.59l-4.55-4.55a1.5 1.5 0 0 1 .35-2.4l2.3.03Z"></path></svg>