<svg xmlns="http://www.w3.org/2000/svg" viewBox="0 0 48 48" fill="#2E7D52" stroke-linecap="round" stroke-linejoin="round"><path d="M22.55 6.4a2.5 2.5 0 0 1 2.9 0l17 12.3a1.5 1.5 0 0 1-.88 2.7H6.43a1.5 1.5 0 0 1-.88-2.7l17-12.3Z"></path>
    <path d="M9 24.4h30v13.1A4.5 4.5 0 0 1 34.5 42h-21A4.5 4.5 0 0 1 9 37.5V24.4Z" opacity=".55"></path>
    <path d="M24 28.5c.42 0 .82.17 1.1.46l4.5 4.5a1.5 1.5 0 0 1-2.1 2.13l-2-2v6.4a1.5 1.5 0 0 1-3 0v-6.4l-2 2a1.5 1.5 0 1 1-2.1-2.13l4.5-4.5c.28-.29.68-.46 1.1-.46Z" fill="#fff"></path></svg>