<svg xmlns="http://www.w3.org/2000/svg" viewBox="0 0 48 48" fill="#2E7D52" stroke-linecap="round" stroke-linejoin="round"><path d="M24 6.5c-.7 0-1.4.25-2 .73L7.5 19.1c-.95.78-1.5 1.95-1.5 3.18V38c0 2.2 1.8 4 4 4h7.5c.55 0 1-.45 1-1V30c0-1.1.9-2 2-2h7c1.1 0 2 .9 2 2v11c0 .55.45 1 1 1H38c2.2 0 4-1.8 4-4V22.28c0-1.23-.55-2.4-1.5-3.18L26 7.23c-.6-.48-1.3-.73-2-.73Z"></path>
    <path d="M34.5 9.5h4.25c.97 0 1.75.78 1.75 1.75V15.5c0 1.04-1.26 1.56-2 .83l-5.58-5.58c-.74-.74-.22-2 .83-2H34.5Z" opacity=".55"></path>
    <path d="M24 17.25c.55 0 1 .45 1 1V21.5h2.4c.78 0 1.18.94.63 1.5l-3.4 3.4a.89.89 0 0 1-1.26 0l-3.4-3.4c-.55-.56-.15-1.5.63-1.5H23v-3.25c0-.55.45-1 1-1Z" fill="#fff"></path></svg>