<svg xmlns="http://www.w3.org/2000/svg" viewBox="0 0 48 48" fill="#2E7D52" stroke-linecap="round" stroke-linejoin="round"><path d="M14 5a1.5 1.5 0 0 1 1.5 1.5V8h17V6.5a1.5 1.5 0 0 1 3 0V8h2A4.5 4.5 0 0 1 42 12.5v3a1 1 0 0 1-1 1H7a1 1 0 0 1-1-1v-3A4.5 4.5 0 0 1 10.5 8h2V6.5A1.5 1.5 0 0 1 14 5Z"></path>
    <path d="M6 21a1 1 0 0 1 1-1h34a1 1 0 0 1 1 1v17.5a4.5 4.5 0 0 1-4.5 4.5h-27A4.5 4.5 0 0 1 6 38.5V21Zm26.04 7.96a1.5 1.5 0 0 0-2.08-2.16l-7.96 7.65-3.46-3.32a1.5 1.5 0 0 0-2.08 2.17l4.5 4.32a1.5 1.5 0 0 0 2.08 0l9-8.66Z" opacity=".55"></path></svg>