<svg xmlns="http://www.w3.org/2000/svg" viewBox="0 0 48 48" fill="#2E7D52" stroke-linecap="round" stroke-linejoin="round"><path d="M9 6a3 3 0 0 0-3 3v32a1 1 0 0 0 1 1h12V9a3 3 0 0 0-3-3H9Zm2 6.5A1.5 1.5 0 0 1 12.5 11h2a1.5 1.5 0 0 1 0 3h-2A1.5 1.5 0 0 1 11 12.5Zm0 7A1.5 1.5 0 0 1 12.5 18h2a1.5 1.5 0 0 1 0 3h-2A1.5 1.5 0 0 1 11 19.5Zm0 7A1.5 1.5 0 0 1 12.5 25h2a1.5 1.5 0 0 1 0 3h-2A1.5 1.5 0 0 1 11 26.5Z"></path>
    <path d="M22 18a3 3 0 0 1 3-3h14a3 3 0 0 1 3 3v23a1 1 0 0 1-1 1H30v-6a1.5 1.5 0 0 0-3 0v6h-4a1 1 0 0 1-1-1V18Zm6 4.5A1.5 1.5 0 0 1 29.5 21h1a1.5 1.5 0 0 1 0 3h-1A1.5 1.5 0 0 1 28 22.5Zm0 7A1.5 1.5 0 0 1 29.5 28h1a1.5 1.5 0 0 1 0 3h-1A1.5 1.5 0 0 1 28 29.5Zm6.5-8.5h1a1.5 1.5 0 0 1 0 3h-1a1.5 1.5 0 0 1 0-3Zm0 7h1a1.5 1.5 0 0 1 0 3h-1a1.5 1.5 0 0 1 0-3Z" opacity=".55"></path></svg>