<svg xmlns="http://www.w3.org/2000/svg" viewBox="0 0 48 48" fill="#2E7D52" stroke-linecap="round" stroke-linejoin="round"><path d="M37.4 5.9a4 4 0 0 1 5.66 5.66L29.9 24.7a2 2 0 0 1-2.83 0l-2.83-2.83a2 2 0 0 1 0-2.83L37.4 5.9Z" opacity=".55"></path>
    <path d="M22.65 21.05a2 2 0 0 1 2.83 0l2.83 2.83a2 2 0 0 1 0 2.83l-1.6 1.6a3 3 0 0 1 .8 2.04c0 1.6-.8 2.85-1.7 3.8-.9.95-1.95 1.7-2.8 2.3l-.4.3a16 16 0 0 1-2.85 1.7c-1.45.7-3.6 1.4-6.4 1.4-3 0-5.4-.6-6.95-1.13-1.05-.36-1.3-1.6-.6-2.4.5-.6 1.5-1.85 2.3-3.5.4-.85.4-1.85.05-2.85-.35-.95-.5-1.7-.5-2.3 0-1.65 1.05-2.8 2-3.6.5-.4 1-.75 1.5-1.05.5-.3 1.05-.6 1.5-.85a8 8 0 0 1 3.95-1.05c1.6 0 2.85.5 3.7 1.1.05.05.15.1.25.15l1.7-1.7Z"></path></svg>