<svg xmlns="http://www.w3.org/2000/svg" viewBox="0 0 48 48" fill="#2E7D52" stroke-linecap="round" stroke-linejoin="round"><path d="M30.5 4.5a1.5 1.5 0 0 1 1.5 1.5v3.6a13 13 0 0 1 11 12.4 1 1 0 0 1-1 1H20a1 1 0 0 1-1-1 13 13 0 0 1 10-12.4V6a1.5 1.5 0 0 1 1.5-1.5Z"></path>
    <circle cx="22.5" cy="29" r="1.8" opacity=".7"></circle>
    <circle cx="30.5" cy="29" r="1.8" opacity=".7"></circle>
    <circle cx="38.5" cy="29" r="1.8" opacity=".7"></circle>
    <circle cx="26.5" cy="35" r="1.8" opacity=".7"></circle>
    <circle cx="34.5" cy="35" r="1.8" opacity=".7"></circle>
    <circle cx="30.5" cy="41" r="1.8" opacity=".7"></circle></svg>