<svg xmlns="http://www.w3.org/2000/svg" viewBox="0 0 48 48" fill="#2E7D52" stroke-linecap="round" stroke-linejoin="round"><path d="M9 6a3 3 0 0 0-3 3v32a1 1 0 0 0 1 1h34a1 1 0 0 0 1-1V9a3 3 0 0 0-3-3H9Z"></path>
    <g fill="#fff">
      <rect x="11" y="11" width="6" height="6" rx="1.2"></rect>
      <rect x="21" y="11" width="6" height="6" rx="1.2"></rect>
      <rect x="31" y="11" width="6" height="6" rx="1.2"></rect>
      <rect x="11" y="21" width="6" height="6" rx="1.2"></rect>
      <rect x="21" y="21" width="6" height="6" rx="1.2"></rect>
      <rect x="31" y="21" width="6" height="6" rx="1.2"></rect>
      <rect x="11" y="31" width="6" height="8" rx="1.2"></rect>
      <rect x="21" y="31" width="6" height="8" rx="1.2"></rect>
      <rect x="31" y="31" width="6" height="6" rx="1.2"></rect>
    </g></svg>