<svg xmlns="http://www.w3.org/2000/svg" viewBox="0 0 48 48" fill="#2E7D52" stroke-linecap="round" stroke-linejoin="round"><rect x="6" y="17" width="32" height="18" rx="2.5" opacity=".4" transform="rotate(-9 22 26)"></rect><rect x="8" y="13" width="32" height="18" rx="2.5"></rect><circle cx="24" cy="22" r="5.5" opacity=".55"></circle><path d="M26.2 18.8c-1.5 0-2.7.8-2.9 2h-2.1c.2-2.2 2.2-3.8 5-3.8 2.9 0 4.8 1.5 4.8 3.7 0 1.7-1.1 2.9-3.4 3.4l-1.4.3c-1.8.4-2.5 1.1-2.5 2.1 0 1.3 1.3 2.2 3.2 2.2 1.8 0 3.1-.8 3.3-2.1h2.1c-.3 2.5-2.6 4.1-5.4 4.1-3.1 0-5.3-1.7-5.3-4.1 0-1.8 1.2-3.1 3.5-3.6l1.4-.3c1.6-.4 2.2-.9 2.2-1.8 0-1.1-1-1.8-2.5-1.8Z"></path></svg>
