<svg xmlns="http://www.w3.org/2000/svg" viewBox="0 0 48 48" fill="#2E7D52" stroke-linecap="round" stroke-linejoin="round"><path d="M16.2 8.8c.6-1.4 2-2.3 3.5-2.1l3.2.5c1.3.2 2.3 1.2 2.5 2.5l.6 3.8c.2 1.3-.4 2.6-1.5 3.2l-2.2 1.3c1.5 3.2 3.9 5.8 7.2 7.4l1.3-2.2c.6-1.1 1.9-1.7 3.2-1.5l3.8.6c1.3.2 2.3 1.2 2.5 2.5l.5 3.2c.2 1.5-.7 2.9-2.1 3.5-2.6 1.1-5.4 1.5-8.2 1.1-4.9-.7-9.3-3.3-12.4-7.3-3.1-4-4.5-9.1-3.8-14 .4-2.8 1.4-5.4 2.9-7.7Z" opacity=".55"></path><path d="M17.8 7.2c.5-1.2 1.7-2 2.9-1.8l3.2.5c1.1.2 2 1 2.1 2.1l.6 3.8c.1 1.1-.3 2.2-1.3 2.7l-2.6 1.5c1.8 3.8 4.7 6.9 8.6 8.8l1.5-2.6c.5-.9 1.6-1.4 2.7-1.2l3.8.6c1.1.2 2 1 2.1 2.1l.5 3.2c.1 1.3-.6 2.5-1.8 3-2.9 1.2-6 1.7-9.1 1.2-5.4-.8-10.3-3.6-13.7-8-3.4-4.4-5-10-4.2-15.4.4-3.1 1.5-6 3.2-8.5Z"></path></svg>
